<svg t="1664964568582" class="icon" viewBox="0 0 1024 1024" version="1.1" xmlns="http://www.w3.org/2000/svg" p-id="2313" xmlns:xlink="http://www.w3.org/1999/xlink" width="64" height="64"><path d="M868.1472 0h-712.30439C90.29682 0 37.138732 57.32402 37.138732 127.995005v768.00999C37.138732 966.705951 90.29682 1024 155.8528 1024h712.30439c65.565971 0 118.704078-57.32402 118.704078-128.014985V127.995005C986.831298 57.32402 933.6832 0 868.1472 0zM525.631688 544.967805a298.438556 298.438556 0 0 0-38.142751-1.818225q-15.374985 0.299707-30.640078 2.117932l-3.067005 0.41959a300.426615 300.426615 0 0 0-73.668059 21.129366l-0.139863 0.069932a308.538693 308.538693 0 0 0-66.235317 41.219746 326.8608 326.8608 0 0 0-48.252878 50.620566c-0.499512 0.689327-2.677385 3.656429-2.84722 3.836254l-1.468566 1.998049a338.509424 338.509424 0 0 0-34.476331 62.219239l-1.818225 4.5056-0.999024 2.627434a341.026966 341.026966 0 0 0-18.461971 73.198517l-0.469541 4.046049q-0.879141 7.992195-1.358674 16.114263-0.669346 10.759493-0.679336 21.548956c0 12.787512-10.100137 23.437112-22.238283 23.437112s-22.238283-10.679571-22.238283-23.437112c0.169834-60.710712 14.985366-121.381463 43.587434-174.129951a349.658537 349.658537 0 0 1 110.522068-122.88 324.573034 324.573034 0 0 1 78.6432-38.961951 206.977873 206.977873 0 0 1-81.610302-105.137327c-15.604761-44.366673-15.98439-96.086166 0-140.372917 16.044332-44.676371 45.355707-83.188761 84.737249-107.335181a187.956449 187.956449 0 0 1 246.319453 43.957074 213.79122 213.79122 0 0 1 0 267.169092 197.087532 197.087532 0 0 1-46.574517 41.899083 330.96679 330.96679 0 0 1 57.793561 25.754849c10.689561 5.994146 13.986341 21.349151 7.992195 32.088663a21.878634 21.878634 0 0 1-29.780917 8.741464l-0.629385-0.359649q-11.698576-6.653502-23.976585-12.27801l-0.209796-0.099902A297.909073 297.909073 0 0 0 531.655805 545.727063c-1.358673-0.169834-5.164956-0.689327-6.024117-0.759258z m317.689756 346.801327H554.023961c-12.108176 0-22.198322-10.679571-22.198322-23.467083s10.130107-23.427122 22.198322-23.427122h289.307473c12.108176 0 22.198322 10.66958 22.198322 23.427122s-10.090146 23.467083-22.198322 23.467083z m0-122.120742H554.023961c-12.108176 0-22.198322-10.66958-22.198322-23.427122s10.100137-23.457093 22.198322-23.457092h289.307473c12.108176 0 22.198322 10.65959 22.198322 23.457092s-10.090146 23.427122-22.198322 23.427122z m0-122.07079H554.023961c-12.108176 0-22.198322-10.66958-22.198322-23.457093s10.100137-23.437112 22.198322-23.437112h289.307473c12.108176 0 22.198322 10.679571 22.198322 23.437112s-10.090146 23.457093-22.198322 23.457093z" p-id="2314" fill="#009688"></path><path d="M611.887454 435.045151a181.133112 181.133112 0 0 0 19.540917-35.165658l0.619395-1.488547a186.108254 186.108254 0 0 0 9.790439-38.362536l0.549463-5.194927a191.812683 191.812683 0 0 0-0.579434-38.0928v-0.169834a189.435005 189.435005 0 0 0-10.509736-39.781151l-0.339669-0.749269-1.568468-3.506575a179.155044 179.155044 0 0 0-17.333073-30.190517 190.493971 190.493971 0 0 0-20.499981-22.717815c-1.828215-1.668371-3.67641-3.316761-5.544585-4.92519l-1.598439-1.358673-0.609405-0.439571a172.261776 172.261776 0 0 0-32.218537-19.620839 166.157737 166.157737 0 0 0-34.206595-10.409834l-5.634497-0.919103-4.825288-0.509502a167.706224 167.706224 0 0 0-35.605229 0.8192l-0.849171 0.139863a164.139707 164.139707 0 0 0-36.594263 10.779473 170.513483 170.513483 0 0 0-29.371318 17.472937l-3.646439 2.85721A175.828293 175.828293 0 0 0 374.55922 240.764878l-1.308722 1.698342a182.711571 182.711571 0 0 0-19.341113 34.746068 186.507863 186.507863 0 0 0-10.369873 39.451473v0.299707a190.89358 190.89358 0 0 0 0 43.117893l0.059942 0.549463a187.57682 187.57682 0 0 0 10.339902 39.331591l1.528507 3.536546a187.946459 187.946459 0 0 0 15.305054 27.573073l2.727337 3.846244a172.671376 172.671376 0 0 0 24.915668 26.753873l2.287766 1.948098a170.683317 170.683317 0 0 0 33.287492 20.400078 165.388488 165.388488 0 0 0 38.122771 10.989268c1.528507 0.169834 4.145951 0.509502 5.105015 0.579434a165.838049 165.838049 0 0 0 36.03481-0.539473l0.4096-0.069932a150.972566 150.972566 0 0 0 21.978536-5.174946q7.732449-2.397659 15.205151-5.544585l0.129874-0.069932 2.447609-1.118907A174.999102 174.999102 0 0 0 584.604098 463.547317l4.175922-3.536546a175.828293 175.828293 0 0 0 23.087453-24.97561z" p-id="2315"></path></svg>