<svg t="1669128187975" class="icon" viewBox="0 0 1024 1024" version="1.1" xmlns="http://www.w3.org/2000/svg" p-id="2786" width="48" height="48"><path d="M512 896C128 896 0 512 0 512S128 128 512 128s512 384 512 384-128 384-512 384z m0-640c-141.376 0-256 114.624-256 256s114.624 256 256 256 256-114.624 256-256-114.624-256-256-256z m0 384c-70.656 0-128-57.344-128-128 0-2.176 0.512-4.16 0.64-6.336 9.92 3.456 20.224 6.336 31.36 6.336 52.992 0 96-43.008 96-96 0-11.136-2.88-21.44-6.336-31.36 2.176-0.128 4.16-0.64 6.336-0.64 70.656 0 128 57.344 128 128s-57.344 128-128 128z" p-id="2787"></path></svg>